/* XPM */
static char *_65ec4b5ce8a44d68e408b236bbc60f3[] = {
/* columns rows colors chars-per-pixel */
"128 128 2 1 ",
"  c #E65F55",
". c None",
/* pixels */
"................................................................................................................................",
"................................................................................................................................",
"................................................................................................................................",
"................................................................................................................................",
"................................................................................................................................",
"................................................................................................................................",
"................................................................................................................................",
"................................................................................................................................",
"................................................................................................................................",
"................................................................................................................................",
"................................................................................................................................",
"................................................................................................................................",
"................................................................................................................................",
"................................................................................................................................",
".............................................................     ..............................................................",
"...........................................................        .............................................................",
"..........................................................          ............................................................",
".........................................................            ...........................................................",
".........................................................             ..........................................................",
".........................................................             ..........................................................",
"........................................................              ..........................................................",
".........................................................             ..........................................................",
".........................................................             ..........................................................",
".........................................................            ...........................................................",
"..........................................................           ...........................................................",
"..........................................................          ............................................................",
"............................................................       .............................................................",
"................................................................................................................................",
"................................................................................................................................",
"................................................................................................................................",
".........................................   .......................................  ...........................................",
"........................................     .....................................    ..........................................",
".......................................       ...................................      .........................................",
"......................................         .................................        ........................................",
"......................................          ...............................          .......................................",
".......................................          ........             ........          ........................................",
"........................................          ...                    ....          .........................................",
".........................................                                             ..........................................",
"..........................................                                           ...........................................",
"...........................................                                         ............................................",
"................................ ...........                                       ..........  .................................",
"...............................   ...........                                     ..........    ................................",
"..............................     ...........            ..........             ..........      ...............................",
".............................       ...........        .................        ..........        ..............................",
"............................         ...........     .....................     ..........          .............................",
"............................          ...........  .........................  ..........          ..............................",
".............................          ................................................          ...............................",
"..............................          ..............................................          ................................",
"...............................          ............................................          .................................",
"................................          ..................... ....................          ..................................",
".................................          ...............           ..............          ...................................",
"..................................          ............               ............         ....................................",
"...................................         ..........                   ..........        .....................................",
"...................................        ..........                     .........        .....................................",
"...................................        .........                       .........        ....................................",
"...................................       .........                         .........       ....................................",
"..................................        ........                          .........       ....................................",
"..................................       ........           .......          ........        ...................................",
"..................................       ........         ...........         ........       ...................................",
"................      ...........        .......         .............        ........       ............       ................",
"..............         ..........       ........        ...............       ........       ...........         ...............",
".............           .........       ........       ................        .......       ..........           ..............",
".............            ........       ........       .................       ........      .........            ..............",
"............             ........       .......        .................       ........       ........             .............",
"............             ........       .......        .................       ........       ........             .............",
"............             ........       .......        .................       ........       ........             .............",
"............             ........       .......        .................       ........       ........             .............",
"............             ........       ........       .................       ........       ........             .............",
".............            ........       ........       .................       ........      .........            ..............",
".............           .........       ........        ...............        .......       ..........           ..............",
"..............         ..........       ........        ...............       ........       ...........         ...............",
"................      ............       ........        .............        ........       ............      .................",
"..................................       ........         ...........         ........       ...................................",
"..................................       .........          .......          ........       ....................................",
"..................................        ........                          .........       ....................................",
"...................................       .........                         .........       ....................................",
"...................................        .........                       .........       .....................................",
"...................................        ..........                     .........        .....................................",
"...................................         ..........                  ...........         ....................................",
"..................................          ............               ............          ...................................",
".................................          ...............          ...............           ..................................",
"................................          ..........................................           .................................",
"...............................          ............................................           ................................",
"..............................          ..............................................           ...............................",
".............................          ................................................           ..............................",
"............................          ...........  .........................  ..........           .............................",
"............................         ...........     .....................     ..........          .............................",
".............................       ...........        .................        ..........        ..............................",
"..............................     ...........             .........             ..........      ...............................",
"...............................   ...........                                     ..........    ................................",
"................................ ...........                                       ..........  .................................",
"...........................................                                         ............................................",
"..........................................                                           ...........................................",
".........................................                                             ..........................................",
"........................................          ...                    ....          .........................................",
".......................................          .......              ........          ........................................",
"......................................          ...............................          .......................................",
"......................................         .................................        ........................................",
".......................................       ...................................      .........................................",
"........................................     .....................................    ..........................................",
".........................................   .......................................  ...........................................",
"................................................................................................................................",
"................................................................................................................................",
"................................................................................................................................",
"................................................................................................................................",
"................................................................................................................................",
"................................................................................................................................",
"................................................................................................................................",
"................................................................................................................................",
"................................................................................................................................",
"................................................................................................................................",
"................................................................................................................................",
"................................................................................................................................",
"................................................................................................................................",
"................................................................................................................................",
"................................................................................................................................",
"................................................................................................................................",
"................................................................................................................................",
"................................................................................................................................",
"................................................................................................................................",
"................................................................................................................................",
"................................................................................................................................",
"................................................................................................................................",
"................................................................................................................................",
"................................................................................................................................",
"................................................................................................................................",
"................................................................................................................................",
"................................................................................................................................"
};
