/* XPM */
static char *be1a7898b59444ebf4779ffa726dfcea[] = {
/* columns rows colors chars-per-pixel */
"48 48 2 1 ",
"  c #E65F55",
". c None",
/* pixels */
"................................................",
"................................................",
"................................................",
"................................................",
"......................   .......................",
"......................    ......................",
".....................     ......................",
".....................     ......................",
"......................    ......................",
"................................................",
"............... ................................",
"..............   ..............  ...............",
"..............    ....    ....    ..............",
"...............                  ...............",
"................                ................",
"...........  ....    .....     ....  ...........",
"..........    .... .......... ....   ...........",
"...........    ..................    ...........",
"............    ......    ......    ............",
".............   ....        ....   .............",
".............   ...          ...   .............",
"............   ...    ....   ...   .............",
".....   ....   ...   ......   ...   ....   .....",
"....     ...   ...   ......   ...   ...     ....",
"....     ...   ...   ......   ...   ...     ....",
"....     ...   ...   ......   ...   ...     ....",
".....   ....   ...   ......   ...   ....   .....",
"............   ...    ....   ...   .............",
".............   ...          ...   .............",
".............   ....        ....   .............",
"............    ......    ......    ............",
"...........    ..................    ...........",
"..........    .... .......... ....    ..........",
"...........  ....     ....     ....  ...........",
"................                ................",
"...............                  ...............",
"..............    ...     ...    ...............",
"..............   .............   ...............",
"............... ............... ................",
"................................................",
"................................................",
"................................................",
"................................................",
"................................................",
"................................................",
"................................................",
"................................................",
"................................................"
};
