/* XPM */
static char *_0683157ed4b4834e6000ee24d2693da[] = {
/* columns rows colors chars-per-pixel */
"16 16 2 1 ",
"  c #E65F55",
". c None",
/* pixels */
"................",
".......  .......",
".......  .......",
"..... .... .....",
".....      .....",
"...  ......  ...",
".... .    . ....",
".  . . .. . .  .",
".  . . .. . .  .",
".... .    . ....",
"...  ......  ...",
".....      .....",
"..... .... .....",
"................",
"................",
"................"
};
