/* XPM */
static char *_b831c8fd81d4fcde4defb58c2c0c19d[] = {
/* columns rows colors chars-per-pixel */
"32 32 2 1 ",
"  c #E65F55",
". c None",
/* pixels */
"................................",
"................................",
"................................",
"...............  ...............",
"..............    ..............",
"..............    ..............",
"...............  ...............",
".......... .......... ..........",
".........   ........   .........",
"..........            ..........",
"....... ...          ... .......",
"......   ... ...... ...  .......",
".......   ............   .......",
"........   ..      ..   ........",
"........  ..       ...  ........",
"...  ...  ..  ....  ..  ...  ...",
"..    ..  ..  ....  ..  ..    ..",
"..    ..  ..  ....  ..  ..    ..",
"...  ...  ..  ....  ..  ...  ...",
"........  ..       ...  ........",
"........   ..     ...   ........",
".......   ............   .......",
"......   ... ...... ...  .......",
"....... ...          ... .......",
"..........            ..........",
".........   ........   .........",
".......... .......... ..........",
"................................",
"................................",
"................................",
"................................",
"................................"
};
